<svg  id="instagram" xmlns="http://www.w3.org/2000/svg">
<path d="M9.60005 1.79999C5.29954 1.79999 1.80005 5.29948 1.80005 9.59999V20.4C1.80005 24.7005 5.29954 28.2 9.60005 28.2H20.4C24.7006 28.2 28.2001 24.7005 28.2001 20.4V9.59999C28.2001 5.29948 24.7006 1.79999 20.4 1.79999H9.60005ZM9.60005 2.99999H20.4C24.0519 2.99999 27 5.9481 27 9.59999V20.4C27 24.0519 24.0519 27 20.4 27H9.60005C5.94816 27 3.00005 24.0519 3.00005 20.4V9.59999C3.00005 5.9481 5.94816 2.99999 9.60005 2.99999ZM22.2001 6.59999C21.8818 6.59999 21.5766 6.72642 21.3515 6.95146C21.1265 7.1765 21 7.48173 21 7.79999C21 8.11825 21.1265 8.42347 21.3515 8.64852C21.5766 8.87356 21.8818 8.99999 22.2001 8.99999C22.5183 8.99999 22.8235 8.87356 23.0486 8.64852C23.2736 8.42347 23.4 8.11825 23.4 7.79999C23.4 7.48173 23.2736 7.1765 23.0486 6.95146C22.8235 6.72642 22.5183 6.59999 22.2001 6.59999ZM15 8.39999C11.3621 8.39999 8.40005 11.362 8.40005 15C8.40005 18.638 11.3621 21.6 15 21.6C18.638 21.6 21.6 18.638 21.6 15C21.6 11.362 18.638 8.39999 15 8.39999ZM15 9.59999C17.9895 9.59999 20.4 12.0105 20.4 15C20.4 17.9894 17.9895 20.4 15 20.4C12.0106 20.4 9.60005 17.9894 9.60005 15C9.60005 12.0105 12.0106 9.59999 15 9.59999Z"/>
</svg>
