<svg  id="viber"  viewBox="0 0 30 30" xmlns="http://www.w3.org/2000/svg">
<path d="M15 1.20001C7.38567 1.20001 1.19995 7.38573 1.19995 15C1.19995 17.4475 1.87116 19.7315 2.99058 21.7254L1.22222 28.0383C1.19397 28.1393 1.19269 28.246 1.21851 28.3476C1.24434 28.4493 1.29637 28.5424 1.3694 28.6177C1.44244 28.693 1.53394 28.7478 1.63477 28.7767C1.73561 28.8056 1.84226 28.8076 1.94409 28.7824L8.52651 27.1512C10.4607 28.1838 12.6555 28.8 15 28.8C22.6142 28.8 28.7999 22.6143 28.7999 15C28.7999 7.38573 22.6142 1.20001 15 1.20001ZM15 2.40001C21.9657 2.40001 27.5999 8.03429 27.5999 15C27.5999 21.9657 21.9657 27.6 15 27.6C12.7668 27.6 10.6752 27.0178 8.85698 26.0004C8.724 25.9261 8.56773 25.9051 8.41987 25.9418L2.65542 27.3703L4.20112 21.8555C4.22324 21.7775 4.22935 21.6959 4.21908 21.6156C4.2088 21.5352 4.18237 21.4578 4.14136 21.3879C3.03636 19.5142 2.39995 17.3341 2.39995 15C2.39995 8.03429 8.03423 2.40001 15 2.40001ZM9.9855 7.80001C9.60087 7.80001 9.05158 7.94311 8.60034 8.42931C8.32931 8.72134 7.19995 9.82172 7.19995 11.7563C7.19995 13.7732 8.59879 15.5135 8.76792 15.7371H8.76909V15.7383C8.75305 15.7172 8.98377 16.0513 9.29175 16.452C9.59973 16.8526 10.0304 17.3788 10.5714 17.9484C11.6535 19.0878 13.1749 20.4045 15.0632 21.2098C15.9328 21.5801 16.6189 21.8037 17.1386 21.9668C18.1019 22.2693 18.9792 22.2233 19.6382 22.1262C20.1315 22.0535 20.6741 21.8167 21.2109 21.477C21.7477 21.1372 22.2738 20.7148 22.5058 20.0731C22.672 19.613 22.7565 19.1878 22.7871 18.8379C22.8023 18.663 22.8043 18.5086 22.7929 18.3656C22.7815 18.2227 22.7937 18.1132 22.6605 17.8945C22.3812 17.4359 22.0648 17.4239 21.7347 17.2606C21.5513 17.1698 21.0291 16.9148 20.5054 16.6652C19.9823 16.416 19.5293 16.1952 19.2503 16.0957C19.0741 16.0323 18.8589 15.941 18.5484 15.9762C18.2379 16.0113 17.9312 16.2354 17.7527 16.5C17.5835 16.7509 16.9022 17.555 16.6945 17.7914C16.6917 17.7897 16.7097 17.798 16.6277 17.7574C16.3708 17.6303 16.0566 17.5222 15.5917 17.277C15.1269 17.0317 14.5453 16.6696 13.9089 16.1086V16.1074C12.9618 15.2736 12.2983 14.2267 12.089 13.875C12.1031 13.8582 12.0873 13.8786 12.1171 13.8492L12.1183 13.8481C12.3322 13.6374 12.5218 13.3857 12.682 13.2012C12.9091 12.9395 13.0093 12.7089 13.1179 12.4934C13.3343 12.0639 13.2138 11.5913 13.0886 11.3426V11.3414C13.0973 11.3586 13.0209 11.1901 12.9386 10.9957C12.8561 10.8008 12.7509 10.548 12.6386 10.2785C12.414 9.73951 12.1632 9.13496 12.014 8.78087V8.7797C11.8383 8.36262 11.6006 8.06216 11.2898 7.9172C10.979 7.77224 10.7044 7.81345 10.6933 7.8129H10.6921C10.4704 7.80267 10.227 7.80001 9.9855 7.80001ZM9.9855 9.00001C10.2168 9.00001 10.4449 9.00283 10.6359 9.01173C10.8324 9.02152 10.8202 9.02233 10.7824 9.0047C10.744 8.98679 10.7961 8.98098 10.9078 9.24611C11.0538 9.59282 11.3059 10.1996 11.5312 10.7402C11.6439 11.0106 11.7493 11.2643 11.8335 11.4633C11.9178 11.6623 11.9634 11.7734 12.0164 11.8793V11.8805L12.0175 11.8817C12.0695 11.9841 12.0649 11.9185 12.0468 11.9543C11.9202 12.2056 11.903 12.2673 11.775 12.4149C11.5799 12.6395 11.381 12.8901 11.2757 12.9938C11.1836 13.0843 11.0174 13.2252 10.9136 13.5012C10.8097 13.7776 10.8582 14.1568 11.025 14.4399C11.247 14.8168 11.9786 16.0076 13.1156 17.0086C13.8316 17.6398 14.4987 18.0576 15.0316 18.3387C15.5645 18.6198 15.9985 18.784 16.0957 18.832C16.3263 18.9462 16.5783 19.0348 16.8714 18.9996C17.1645 18.9644 17.4172 18.7866 17.5781 18.6047L17.5792 18.6035C17.7933 18.3608 18.4295 17.6344 18.7347 17.1867C18.7477 17.1913 18.7434 17.1877 18.8449 17.2242V17.2254H18.846C18.8924 17.2419 19.4725 17.5016 19.9898 17.7481C20.5071 17.9945 21.0321 18.2507 21.2027 18.3352C21.4489 18.457 21.5652 18.5363 21.5953 18.5367C21.5973 18.5895 21.5993 18.6467 21.5917 18.7336C21.5707 18.9746 21.5063 19.3081 21.3773 19.6652C21.3141 19.8401 20.985 20.2006 20.5699 20.4633C20.1548 20.726 19.6496 20.9115 19.4625 20.9391C18.8999 21.022 18.232 21.0522 17.4984 20.8219C16.9898 20.6622 16.3555 20.4556 15.5343 20.1059C13.8688 19.3956 12.4533 18.1869 11.4421 17.1223C10.9366 16.59 10.5315 16.0944 10.2433 15.7195C9.95567 15.3454 9.83007 15.1506 9.72534 15.0129L9.72417 15.0117C9.53827 14.7659 8.39995 13.1825 8.39995 11.7563C8.39995 10.2468 9.10105 9.65487 9.48042 9.24611C9.67958 9.03151 9.89732 9.00001 9.9855 9.00001Z"/>
</svg>
