<svg  viewBox="0 0 10 10" fill="none" xmlns="http://www.w3.org/2000/svg">
<g clip-path="url(#clip0_2_246)">
<path d="M4.20005 0.600006C2.32427 0.600006 0.800049 2.12422 0.800049 4.00001C0.800049 5.87579 2.32427 7.40001 4.20005 7.40001C4.94224 7.40001 5.62817 7.16094 6.18755 6.75626L8.8188 9.38126L9.3813 8.81876L6.7813 6.21251C7.29224 5.61719 7.60005 4.84454 7.60005 4.00001C7.60005 2.12422 6.07583 0.600006 4.20005 0.600006ZM4.20005 1.00001C5.85942 1.00001 7.20005 2.34063 7.20005 4.00001C7.20005 5.65938 5.85942 7.00001 4.20005 7.00001C2.54067 7.00001 1.20005 5.65938 1.20005 4.00001C1.20005 2.34063 2.54067 1.00001 4.20005 1.00001Z" fill="black"/>
</g>
<defs>
<clipPath id="clip0_2_246">
<rect width="10" height="10" fill="white"/>
</clipPath>
</defs>
</svg>
