<svg id="sum"  viewBox="0 0 12 12"  xmlns="http://www.w3.org/2000/svg">
<path d="M2.39961 0.23999C1.83148 0.23999 1.37164 0.637959 1.07211 1.16249C0.772578 1.68702 0.599609 2.36905 0.599609 3.11999C0.599609 3.87093 0.772578 4.55296 1.07211 5.07749C1.37164 5.60202 1.83148 5.99999 2.39961 5.99999C2.96773 5.99999 3.42758 5.60202 3.72711 5.07749C4.02664 4.55296 4.19961 3.87093 4.19961 3.11999C4.19961 2.36905 4.02664 1.68702 3.72711 1.16249C3.42758 0.637959 2.96773 0.23999 2.39961 0.23999ZM9.20586 0.27374L1.92711 11.7262H2.75961L10.0271 0.27374H9.20586ZM2.39961 0.95999C2.62742 0.95999 2.88758 1.12312 3.10836 1.51124C3.32914 1.89937 3.47961 2.48015 3.47961 3.11999C3.47961 3.75983 3.32914 4.34062 3.10836 4.72874C2.88758 5.11687 2.62742 5.27999 2.39961 5.27999C2.1718 5.27999 1.91164 5.11687 1.69086 4.72874C1.47008 4.34062 1.31961 3.75983 1.31961 3.11999C1.31961 2.48015 1.47008 1.89937 1.69086 1.51124C1.91164 1.12312 2.1718 0.95999 2.39961 0.95999ZM9.59961 5.99999C9.03148 5.99999 8.57164 6.39796 8.27211 6.92249C7.97258 7.44702 7.79961 8.12905 7.79961 8.87999C7.79961 9.63093 7.97258 10.313 8.27211 10.8375C8.57164 11.362 9.03148 11.76 9.59961 11.76C10.1677 11.76 10.6276 11.362 10.9271 10.8375C11.2266 10.313 11.3996 9.63093 11.3996 8.87999C11.3996 8.12905 11.2266 7.44702 10.9271 6.92249C10.6276 6.39796 10.1677 5.99999 9.59961 5.99999ZM9.59961 6.71999C9.82742 6.71999 10.0876 6.88312 10.3084 7.27124C10.5291 7.65937 10.6796 8.24015 10.6796 8.87999C10.6796 9.51983 10.5291 10.1006 10.3084 10.4887C10.0876 10.8769 9.82742 11.04 9.59961 11.04C9.3718 11.04 9.11164 10.8769 8.89086 10.4887C8.67008 10.1006 8.51961 9.51983 8.51961 8.87999C8.51961 8.24015 8.67008 7.65937 8.89086 7.27124C9.11164 6.88312 9.3718 6.71999 9.59961 6.71999Z"/>
</svg>
