<svg id="cart" viewBox="0 0 30 30" xmlns="http://www.w3.org/2000/svg">
<path d="M15.0001 0.600006C11.679 0.600006 9.0001 3.27891 9.0001 6.60001V7.80001H4.25635L4.2001 8.32501L1.8001 29.325L1.7251 30H28.2751L28.2001 29.325L25.8001 8.32501L25.7438 7.80001H21.0001V6.60001C21.0001 3.27891 18.3212 0.600006 15.0001 0.600006ZM15.0001 1.80001C17.679 1.80001 19.8001 3.9211 19.8001 6.60001V7.80001H10.2001V6.60001C10.2001 3.9211 12.3212 1.80001 15.0001 1.80001ZM5.34385 9.00001H9.0001V10.3688C8.6415 10.5773 8.4001 10.957 8.4001 11.4C8.4001 12.0633 8.93682 12.6 9.6001 12.6C10.2634 12.6 10.8001 12.0633 10.8001 11.4C10.8001 10.957 10.5587 10.5773 10.2001 10.3688V9.00001H19.8001V10.3688C19.4415 10.5773 19.2001 10.957 19.2001 11.4C19.2001 12.0633 19.7368 12.6 20.4001 12.6C21.0634 12.6 21.6001 12.0633 21.6001 11.4C21.6001 10.957 21.3587 10.5773 21.0001 10.3688V9.00001H24.6563L26.9251 28.8H3.0751L5.34385 9.00001Z"/>
</svg>
